<svg width="61" height="61" viewBox="0 0 61 61" fill="none" xmlns="http://www.w3.org/2000/svg">
<path d="M48.2917 27.9583H33.0417V12.7083C33.0417 12.0342 32.7739 11.3878 32.2972 10.9111C31.8206 10.4344 31.1741 10.1667 30.5 10.1667C29.8259 10.1667 29.1794 10.4344 28.7028 10.9111C28.2261 11.3878 27.9583 12.0342 27.9583 12.7083V27.9583H12.7083C12.0342 27.9583 11.3878 28.2261 10.9111 28.7028C10.4344 29.1794 10.1667 29.8259 10.1667 30.5C10.1667 31.1741 10.4344 31.8206 10.9111 32.2972C11.3878 32.7739 12.0342 33.0417 12.7083 33.0417H27.9583V48.2917C27.9583 48.9658 28.2261 49.6122 28.7028 50.0889C29.1794 50.5656 29.8259 50.8333 30.5 50.8333C31.1741 50.8333 31.8206 50.5656 32.2972 50.0889C32.7739 49.6122 33.0417 48.9658 33.0417 48.2917V33.0417H48.2917C48.9658 33.0417 49.6122 32.7739 50.0889 32.2972C50.5656 31.8206 50.8333 31.1741 50.8333 30.5C50.8333 29.8259 50.5656 29.1794 50.0889 28.7028C49.6122 28.2261 48.9658 27.9583 48.2917 27.9583Z" fill="#8D6047"/>
</svg>
