<svg width="30" height="30" viewBox="0 0 30 30" fill="none" xmlns="http://www.w3.org/2000/svg">
<path d="M24.3563 25.1925L16.5288 17.365C15.9038 17.8975 15.185 18.3096 14.3725 18.6013C13.56 18.8929 12.7433 19.0388 11.9225 19.0388C9.92084 19.0388 8.22668 18.3458 6.84001 16.96C5.45334 15.5742 4.76001 13.8804 4.76001 11.8788C4.76001 9.87709 5.45251 8.1825 6.83751 6.795C8.22251 5.4075 9.91584 4.71292 11.9175 4.71125C13.9192 4.70959 15.6142 5.40292 17.0025 6.79125C18.3908 8.17959 19.0854 9.87417 19.0863 11.875C19.0863 12.7433 18.9325 13.5838 18.625 14.3963C18.3175 15.2088 17.9133 15.9038 17.4125 16.4813L25.24 24.3075L24.3563 25.1925ZM11.9225 17.7875C13.5808 17.7875 14.9813 17.2167 16.1238 16.075C17.2663 14.9333 17.8371 13.5329 17.8363 11.8738C17.8354 10.2146 17.2646 8.81459 16.1238 7.67375C14.9829 6.53292 13.5829 5.96209 11.9238 5.96125C10.2646 5.96042 8.86418 6.53125 7.72251 7.67375C6.58084 8.81625 6.01001 10.2163 6.01001 11.8738C6.01001 13.5313 6.58084 14.9313 7.72251 16.0738C8.86418 17.2163 10.2642 17.7883 11.9225 17.7875Z" fill="#924D26"/>
</svg>
